<svg width="70" height="70" viewBox="0 0 70 70" fill="none" xmlns="http://www.w3.org/2000/svg">
<path opacity="0.3" d="M35 8.75C31.5528 8.75 28.1394 9.42898 24.9546 10.7482C21.7698 12.0673 18.876 14.0009 16.4384 16.4384C14.0009 18.876 12.0673 21.7698 10.7482 24.9546C9.42898 28.1394 8.75 31.5528 8.75 35C8.75 38.4472 9.42898 41.8606 10.7482 45.0454C12.0673 48.2302 14.0009 51.124 16.4384 53.5616C18.876 55.9991 21.7698 57.9327 24.9546 59.2518C28.1394 60.571 31.5528 61.25 35 61.25C38.4472 61.25 41.8606 60.571 45.0454 59.2518C48.2302 57.9327 51.124 55.9991 53.5616 53.5616C55.9991 51.124 57.9327 48.2302 59.2518 45.0454C60.571 41.8606 61.25 38.4472 61.25 35C61.25 31.5528 60.571 28.1394 59.2518 24.9546C57.9327 21.7698 55.9991 18.876 53.5616 16.4384C51.124 14.0009 48.2302 12.0673 45.0454 10.7482C41.8606 9.42898 38.4472 8.75 35 8.75Z" fill="#000"/>
<path d="M44.625 48.7083L32.0833 36.1667V17.5H37.9167V33.8333L48.7083 44.625L44.625 48.7083Z" fill="#000"/>
<path d="M35 64.1667C18.9583 64.1667 5.83334 51.0417 5.83334 35C5.83334 18.9583 18.9583 5.83334 35 5.83334C51.0417 5.83334 64.1667 18.9583 64.1667 35C64.1667 51.0417 51.0417 64.1667 35 64.1667ZM35 11.6667C22.1667 11.6667 11.6667 22.1667 11.6667 35C11.6667 47.8333 22.1667 58.3333 35 58.3333C47.8333 58.3333 58.3333 47.8333 58.3333 35C58.3333 22.1667 47.8333 11.6667 35 11.6667Z" fill="#000"/>
</svg>
