<svg width="70" height="70" viewBox="0 0 70 70" fill="none" xmlns="http://www.w3.org/2000/svg">
<path opacity="0.3" d="M52.5 35C52.5 25.375 44.625 17.5 35 17.5C25.375 17.5 17.5 25.375 17.5 35C17.5 42.5833 22.4583 49 29.1667 51.625V61.25C29.1667 63 30.3333 64.1667 32.0833 64.1667H37.9167C39.6667 64.1667 40.8333 63 40.8333 61.25V51.625C47.5417 49 52.5 42.5833 52.5 35Z" fill="#000"/>
<path d="M61.25 32.0833H70V37.9167H61.25V32.0833ZM0 32.0833H8.75V37.9167H0V32.0833ZM32.0833 0H37.9167V8.75H32.0833V0Z" fill="#000"/>
<path d="M51.3975 55.6202L55.5222 51.4953L61.7095 57.6824L57.5848 61.8072L51.3975 55.6202Z" fill="#000"/>
<path d="M8.29086 12.3127L12.4156 8.18779L18.6029 14.3749L14.4782 18.4997L8.29086 12.3127Z" fill="#000"/>
<path d="M51.4996 14.4768L57.6858 8.28865L61.8112 12.4128L55.625 18.6009L51.4996 14.4768Z" fill="#000"/>
<path d="M8.1909 57.5798L14.3789 51.3935L18.5032 55.5189L12.3151 61.7052L8.1909 57.5798Z" fill="#000"/>
<path d="M37.9167 67.0833H32.0833C28.875 67.0833 26.25 64.4583 26.25 61.25V53.375C19.25 50.1666 14.5833 42.875 14.5833 35C14.5833 23.625 23.625 14.5833 35 14.5833C46.375 14.5833 55.4167 23.625 55.4167 35C55.4167 42.875 50.75 50.1666 43.75 53.375V61.25C43.75 64.4583 41.125 67.0833 37.9167 67.0833ZM35 20.4166C26.8333 20.4166 20.4167 26.8333 20.4167 35C20.4167 41.125 24.2083 46.6666 30.0417 48.7083L32.0833 49.2916V61.25H37.9167V49.2916L39.9583 48.7083C45.7917 46.6666 49.5833 41.125 49.5833 35C49.5833 26.8333 43.1667 20.4166 35 20.4166ZM0 32.0833H8.75V37.9166H0V32.0833Z" fill="#000"/>
</svg>
