<svg width="320" height="128" viewBox="0 0 320 128" fill="none" xmlns="http://www.w3.org/2000/svg">
<circle cx="66.9032" cy="50.0645" r="14.3226" fill="#F59E0B"/>
<path d="M47.2097 32.1613L82.4194 91.8387H12L47.2097 32.1613Z" fill="#151C26"/>
<path d="M86 25L128.968 99H43.0323L86 25Z" fill="url(#paint0_linear)"/>
<path d="M142.776 88.4822C141.852 88.4822 141.075 88.1663 140.443 87.5344C139.811 86.9024 139.495 86.1247 139.495 85.2012V53.922C139.495 52.9985 139.811 52.2208 140.443 51.5889C141.075 50.9083 141.852 50.5681 142.776 50.5681C143.699 50.5681 144.477 50.9083 145.109 51.5889C145.789 52.2208 146.13 52.9985 146.13 53.922V56.9114C147.491 54.9671 149.119 53.363 151.015 52.0992C152.959 50.8354 155.462 50.2035 158.525 50.2035C161.247 50.2035 163.58 50.9326 165.524 52.3909C167.469 53.8491 168.854 55.6233 169.68 57.7134C172.694 52.7068 177.166 50.2035 183.096 50.2035C185.818 50.2035 188.078 50.884 189.877 52.2451C191.724 53.6061 193.085 55.356 193.96 57.4947C194.835 59.6335 195.272 61.8694 195.272 64.2026V85.2012C195.272 86.1247 194.932 86.9024 194.252 87.5344C193.62 88.1663 192.842 88.4822 191.918 88.4822C190.995 88.4822 190.217 88.1663 189.585 87.5344C188.953 86.9024 188.637 86.1247 188.637 85.2012V65.515C188.637 62.3555 188.078 60.0466 186.96 58.5884C185.842 57.0815 183.922 56.3281 181.2 56.3281C178.721 56.3281 176.655 56.9843 175.003 58.2967C173.399 59.5605 171.965 61.2375 170.701 63.3276V85.2012C170.701 86.1247 170.361 86.9024 169.68 87.5344C169.048 88.1663 168.271 88.4822 167.347 88.4822C166.424 88.4822 165.646 88.1663 165.014 87.5344C164.382 86.9024 164.066 86.1247 164.066 85.2012V65.515C164.066 62.3555 163.507 60.0466 162.389 58.5884C161.271 57.0815 159.351 56.3281 156.629 56.3281C154.15 56.3281 152.084 56.9843 150.432 58.2967C148.827 59.5605 147.394 61.2375 146.13 63.3276V85.2012C146.13 86.1247 145.789 86.9024 145.109 87.5344C144.477 88.1663 143.699 88.4822 142.776 88.4822Z" fill="black"/>
<path d="M222.831 88.8468C219.088 88.8468 215.807 88.0447 212.988 86.4407C210.168 84.8366 207.981 82.5764 206.426 79.6599C204.919 76.6948 204.165 73.3166 204.165 69.5251C204.165 65.7337 204.919 62.3798 206.426 59.4633C207.981 56.4982 210.168 54.2137 212.988 52.6096C215.807 51.0056 219.088 50.2035 222.831 50.2035C226.525 50.2035 229.782 51.0056 232.601 52.6096C235.42 54.2137 237.607 56.4982 239.163 59.4633C240.718 62.3798 241.496 65.7337 241.496 69.5251C241.496 73.3166 240.718 76.6948 239.163 79.6599C237.607 82.5764 235.42 84.8366 232.601 86.4407C229.782 88.0447 226.525 88.8468 222.831 88.8468ZM222.831 82.7951C224.824 82.7951 226.719 82.3333 228.518 81.4098C230.365 80.4862 231.872 79.028 233.038 77.0351C234.253 75.0421 234.861 72.5145 234.861 69.4522C234.861 66.4385 234.253 63.9352 233.038 61.9423C231.872 59.9494 230.365 58.5155 228.518 57.6405C226.719 56.717 224.824 56.2552 222.831 56.2552C220.789 56.2552 218.845 56.717 216.998 57.6405C215.199 58.5155 213.717 59.9494 212.55 61.9423C211.383 63.9352 210.8 66.4385 210.8 69.4522C210.8 72.5145 211.383 75.0421 212.55 77.0351C213.717 79.028 215.199 80.4862 216.998 81.4098C218.845 82.3333 220.789 82.7951 222.831 82.7951Z" fill="black"/>
<path d="M254.066 88.4822C253.142 88.4822 252.365 88.1663 251.733 87.5344C251.101 86.9024 250.785 86.1247 250.785 85.2012V53.922C250.785 52.9985 251.101 52.2208 251.733 51.5889C252.365 50.9083 253.142 50.5681 254.066 50.5681C254.989 50.5681 255.767 50.9083 256.399 51.5889C257.08 52.2208 257.42 52.9985 257.42 53.922V57.0572C260.822 52.4881 264.638 50.2035 268.867 50.2035H269.232C270.155 50.2035 270.909 50.5195 271.492 51.1514C272.124 51.7833 272.44 52.561 272.44 53.4846C272.44 54.4081 272.124 55.1615 271.492 55.7448C270.86 56.3281 270.058 56.6198 269.086 56.6198H268.721C266.388 56.6198 264.249 57.2031 262.305 58.3696C260.361 59.4876 258.732 61.0431 257.42 63.036V85.2012C257.42 86.1247 257.08 86.9024 256.399 87.5344C255.767 88.1663 254.989 88.4822 254.066 88.4822Z" fill="black"/>
<path d="M288.175 88.8468C286.036 88.8468 284.043 88.4093 282.196 87.5344C280.398 86.6594 278.964 85.3956 277.894 83.7429C276.825 82.0417 276.29 80.0974 276.29 77.91C276.29 74.313 277.7 71.4452 280.519 69.3064C283.387 67.1677 287.567 66.0983 293.06 66.0983H301.882V65.515C301.882 62.3069 301.08 59.998 299.476 58.5884C297.921 57.1788 295.466 56.4739 292.112 56.4739C290.265 56.4739 288.612 56.6198 287.154 56.9114C285.745 57.2031 284.165 57.6405 282.415 58.2238C282.026 58.321 281.71 58.3696 281.467 58.3696C280.738 58.3696 280.106 58.1023 279.571 57.5676C279.037 57.0329 278.769 56.3767 278.769 55.599C278.769 54.2866 279.401 53.363 280.665 52.8284C284.797 51.0785 289.001 50.2035 293.279 50.2035C296.633 50.2035 299.452 50.884 301.737 52.2451C304.07 53.6061 305.771 55.3803 306.84 57.5676C307.958 59.7064 308.517 62.0395 308.517 64.5671V85.2012C308.517 86.1247 308.177 86.9024 307.497 87.5344C306.865 88.1663 306.087 88.4822 305.163 88.4822C304.24 88.4822 303.462 88.1663 302.83 87.5344C302.198 86.9024 301.882 86.1247 301.882 85.2012V83.3055C298.285 86.9997 293.716 88.8468 288.175 88.8468ZM290.654 83.0138C292.793 83.0138 294.859 82.5034 296.851 81.4827C298.844 80.4133 300.521 79.1009 301.882 77.5454V71.4209H293.935C286.595 71.4209 282.925 73.3409 282.925 77.1809C282.925 78.9308 283.509 80.3404 284.675 81.4098C285.89 82.4791 287.883 83.0138 290.654 83.0138Z" fill="black"/>
<rect x="139.457" y="35.8824" width="55.5" height="7.61765" rx="3" fill="#F59E0B"/>
<defs>
<linearGradient id="paint0_linear" x1="86" y1="25" x2="59.8824" y2="96.8235" gradientUnits="userSpaceOnUse">
<stop offset="0.248019" stop-color="#425979"/>
<stop offset="1" stop-color="#202B39"/>
</linearGradient>
</defs>
</svg>
