<svg width="70" height="70" viewBox="0 0 70 70" fill="none" xmlns="http://www.w3.org/2000/svg">
<path d="M39.375 14.5833L38.2083 7.00001C37.9167 6.41668 37.3333 5.83334 36.75 5.83334H33.25C32.6667 5.83334 31.7917 6.41668 31.7917 7.00001L30.625 14.5833H39.375ZM30.625 55.4167L31.7917 63C31.7917 63.5834 32.375 64.1667 33.25 64.1667H36.75C37.3333 64.1667 38.2083 63.5834 38.2083 63L39.375 55.4167H30.625ZM55.4167 39.375L63 38.2083C63.5833 38.2083 64.1667 37.625 64.1667 36.75V33.25C64.1667 32.6667 63.5833 31.7917 63 31.7917L55.4167 30.625V39.375ZM14.5833 30.625L7 31.7917C6.41667 32.0833 5.83333 32.6667 5.83333 33.25V36.75C5.83333 37.3333 6.41667 38.2083 7 38.2083L14.5833 39.375V30.625ZM28.5833 15.1667L23.625 9.33334C23.3333 8.75001 22.4583 8.45834 21.875 9.04168L18.9583 10.7917C18.375 11.0833 18.0833 11.6667 18.375 12.25L21 19.5417L28.5833 15.1667ZM41.4167 54.8333L46.375 60.6667C46.9583 61.25 47.5417 61.25 48.125 60.9583L51.0417 59.2083C51.625 58.9167 51.9167 58.0417 51.625 57.4584L49 50.1667L41.4167 54.8333ZM54.8333 28.5833L60.6667 23.625C61.25 23.3333 61.5417 22.4583 60.9583 21.875L59.2083 18.9583C58.9167 18.375 58.0417 18.0833 57.4583 18.375L50.1667 21L54.8333 28.5833ZM15.1667 41.4167L9.33333 46.375C8.75 46.6667 8.45833 47.5417 9.04167 48.125L10.7917 51.0417C11.0833 51.625 11.9583 51.9167 12.5417 51.625L19.8333 49L15.1667 41.4167ZM19.5417 21L12.25 18.375C11.6667 18.0833 11.0833 18.375 10.5 18.9583L8.75 21.875C8.45833 22.4583 8.75 23.3333 9.33333 23.625L15.1667 28.5833L19.5417 21ZM50.4583 49L57.75 51.625C58.3333 51.9167 59.2083 51.625 59.5 51.0417L61.25 48.125C61.5417 47.5417 61.5417 46.6667 60.9583 46.375L55.125 41.4167L50.4583 49ZM49 19.5417L51.625 12.25C51.9167 11.6667 51.625 10.7917 51.0417 10.5L48.125 8.75001C47.5417 8.45834 46.6667 8.75001 46.375 9.33334L41.4167 15.1667L49 19.5417ZM21 50.4583L18.375 57.75C18.0833 58.3333 18.375 59.2083 18.9583 59.5L21.875 61.25C22.4583 61.5417 23.3333 61.25 23.625 60.6667L28.5833 54.8333L21 50.4583ZM35 43.75C30.0417 43.75 26.25 39.9583 26.25 35C26.25 30.0417 30.0417 26.25 35 26.25C39.9583 26.25 43.75 30.0417 43.75 35C43.75 39.9583 39.9583 43.75 35 43.75ZM35 32.0833C33.25 32.0833 32.0833 33.25 32.0833 35C32.0833 36.75 33.25 37.9167 35 37.9167C36.75 37.9167 37.9167 36.75 37.9167 35C37.9167 33.25 36.75 32.0833 35 32.0833Z" fill="#000"/>
<path opacity="0.3" d="M35 14.5833C23.625 14.5833 14.5833 23.625 14.5833 35C14.5833 46.375 23.625 55.4167 35 55.4167C46.375 55.4167 55.4167 46.375 55.4167 35C55.4167 23.625 46.375 14.5833 35 14.5833ZM35 40.8333C31.7917 40.8333 29.1667 38.2083 29.1667 35C29.1667 31.7917 31.7917 29.1667 35 29.1667C38.2083 29.1667 40.8333 31.7917 40.8333 35C40.8333 38.2083 38.2083 40.8333 35 40.8333Z" fill="#000"/>
<path d="M32.0833 14.5833H37.9167V32.0833H32.0833V14.5833Z" fill="#000"/>
<path d="M15.7698 42.7349L30.9266 33.9873L33.8425 39.0396L18.6856 47.7872L15.7698 42.7349Z" fill="#000"/>
<path d="M36.1206 38.8904L39.0367 33.8383L54.1932 42.5864L51.2771 47.6386L36.1206 38.8904Z" fill="#000"/>
<path d="M35 58.3333C22.1667 58.3333 11.6667 47.8333 11.6667 35C11.6667 22.1667 22.1667 11.6667 35 11.6667C47.8333 11.6667 58.3333 22.1667 58.3333 35C58.3333 47.8333 47.8333 58.3333 35 58.3333ZM35 17.5C25.375 17.5 17.5 25.375 17.5 35C17.5 44.625 25.375 52.5 35 52.5C44.625 52.5 52.5 44.625 52.5 35C52.5 25.375 44.625 17.5 35 17.5Z" fill="#000"/>
</svg>
