<svg width="70" height="70" viewBox="0 0 70 70" fill="none" xmlns="http://www.w3.org/2000/svg">
<path opacity="0.3" d="M53.9583 29.1667C53.375 29.1667 52.7917 29.1667 52.2083 29.4583C51.0417 21 43.75 14.5833 35 14.5833C28.5833 14.5833 22.75 18.0833 19.8333 23.3333C19.5417 23.3333 19.25 23.3333 18.9583 23.3333C10.2083 23.3333 2.91667 30.625 2.91667 39.375C2.91667 48.125 10.2083 55.4167 18.9583 55.4167H53.9583C61.25 55.4167 67.0833 49.5833 67.0833 42.2917C67.0833 35 61.25 29.1667 53.9583 29.1667Z" fill="#000"/>
<path d="M35 29.1667L46.6667 40.8333H37.9167V55.4167H32.0833V40.8333H23.3333L35 29.1667Z" fill="#000"/>
<path d="M53.9583 58.3333H18.9583C8.45833 58.3333 0 49.875 0 39.375C0 29.1667 8.16667 20.7083 18.375 20.4167C22.1667 14.875 28.2917 11.6667 35 11.6667C44.0417 11.6667 51.9167 17.7917 54.5417 26.25C63 26.5417 70 33.5417 70 42.2917C70 51.0417 62.7083 58.3333 53.9583 58.3333ZM18.9583 26.25C11.6667 26.25 5.83333 32.0833 5.83333 39.375C5.83333 46.6667 11.6667 52.5 18.9583 52.5H53.9583C59.5 52.5 64.1667 47.8333 64.1667 42.2917C64.1667 36.75 59.5 32.0833 53.9583 32.0833C53.6667 32.0833 53.375 32.0833 53.0833 32.0833L49.875 32.375L49.2917 29.4583C48.125 22.75 42.2917 17.5 35 17.5C29.75 17.5 25.0833 20.4167 22.4583 24.7917L21.5833 26.25H18.9583Z" fill="#000"/>
</svg>
